<?xml version="1.0" encoding="utf-8"?><!DOCTYPE svg PUBLIC "-//W3C//DTD SVG 1.1//EN" "http://www.w3.org/Graphics/SVG/1.1/DTD/svg11.dtd"><svg version="1.1" xmlns="http://www.w3.org/2000/svg" xmlns:xlink="http://www.w3.org/1999/xlink" x="0px" y="0px" viewBox="0 4.886 100 88.281" enable-background="new 0 4.886 100 88.281" xml:space="preserve"><g><path d="M74.215,24.768l5.252-5.239c1.562-1.576,4.312-1.587,5.889,0c1.628,1.631,1.628,4.261,0,5.89l-5.25,5.247
		c-0.774,0.78-1.826,1.224-2.945,1.224c-1.127,0-2.215-0.469-2.986-1.265c-0.754-0.755-1.189-1.805-1.189-2.925
		C72.997,26.593,73.427,25.543,74.215,24.768z M45.836,9.054c0-2.302,1.867-4.168,4.155-4.168c2.307,0,4.172,1.866,4.172,4.168
		v7.417c0,2.298-1.865,4.165-4.172,4.165c-2.289,0-4.155-1.867-4.155-4.165V9.054z M49.673,25.805
		c15.99,0,28.953,12.97,28.953,28.953c0,0.775-0.055,1.543-0.104,2.31h-7.665c0.096-0.758,0.15-1.534,0.15-2.31
		c0-11.752-9.564-21.32-21.333-21.32c-11.76,0-21.309,9.568-21.309,21.32c0,0.775,0.049,1.552,0.132,2.31h-7.666
		c-0.05-0.767-0.091-1.534-0.091-2.31C20.74,38.775,33.704,25.805,49.673,25.805z M14.643,19.528
		c1.576-1.598,4.334-1.576,5.898,0.013l5.239,5.255c0.775,0.747,1.215,1.784,1.223,2.892c0.008,1.131-0.422,2.189-1.223,2.986
		c-0.768,0.78-1.812,1.215-2.945,1.215c-1.106,0-2.157-0.427-2.945-1.215l-5.247-5.256c-0.78-0.767-1.211-1.804-1.211-2.925
		C13.419,21.383,13.855,20.329,14.643,19.528z M0,54.882c0-2.294,1.867-4.16,4.155-4.16h7.425c2.307,0,4.173,1.866,4.173,4.16
		c0,2.299-1.867,4.177-4.173,4.177H4.156C1.867,59.059,0,57.181,0,54.882z M25.088,93.167H6.845c-0.602,0-1.161-0.314-1.485-0.819
		c-0.298-0.499-0.332-1.142-0.058-1.667l13.841-27.992c0.29-0.59,0.9-0.961,1.555-0.961h18.243c0.597,0,1.161,0.298,1.468,0.815
		c0.323,0.512,0.357,1.142,0.075,1.671L26.649,92.201C26.361,92.795,25.751,93.167,25.088,93.167z M49.66,93.167H31.4
		c-0.589,0-1.154-0.314-1.459-0.819c-0.323-0.499-0.345-1.153-0.083-1.667l13.854-27.992c0.29-0.59,0.887-0.961,1.55-0.961h18.243
		c0.614,0,1.162,0.298,1.485,0.815c0.307,0.512,0.34,1.142,0.07,1.671L51.207,92.201C50.93,92.795,50.323,93.167,49.66,93.167z
		 M89.631,64.214L75.777,92.201c-0.29,0.594-0.897,0.966-1.561,0.966H55.978c-0.611,0-1.161-0.316-1.481-0.82
		c-0.317-0.498-0.344-1.152-0.074-1.668l13.846-27.99c0.299-0.59,0.887-0.962,1.564-0.962h18.237c0.606,0,1.154,0.298,1.478,0.816
		C89.853,63.054,89.888,63.684,89.631,64.214z M95.84,59.059h-7.438c-2.29,0-4.163-1.878-4.163-4.177c0-2.294,1.873-4.16,4.163-4.16
		h7.438c2.294,0,4.16,1.866,4.16,4.16C100,57.181,98.134,59.059,95.84,59.059z"></path></g></svg>