<svg xmlns="http://www.w3.org/2000/svg" xmlns:xlink="http://www.w3.org/1999/xlink" version="1.1" x="0px" y="0px" viewBox="0 0 80 100" enable-background="new 0 0 80 80" xml:space="preserve"><g><path  d="M40,17c-12.682,0-23,10.318-23,23c0,12.683,10.318,23,23,23c12.683,0,23-10.317,23-23C63,27.318,52.683,17,40,17z M40,62   c-12.131,0-22-9.869-22-22s9.869-22,22-22s22,9.869,22,22S52.131,62,40,62z"/><path  d="M40,16c1.103,0,2-0.897,2-2V4c0-1.103-0.897-2-2-2c-1.103,0-2,0.897-2,2v10C38,15.103,38.897,16,40,16z M39,4   c0-0.551,0.449-1,1-1s1,0.449,1,1v10c0,0.551-0.449,1-1,1s-1-0.449-1-1V4z"/><path  d="M25.268,18.483c0.356,0.617,1.021,1,1.733,1c0.35,0,0.695-0.093,0.999-0.269c0.462-0.267,0.793-0.698,0.932-1.214   c0.139-0.516,0.067-1.055-0.2-1.518l-5-8.66C23.203,6.904,21.925,6.558,21,7.091c-0.462,0.267-0.793,0.698-0.932,1.214   c-0.139,0.516-0.067,1.055,0.2,1.518L25.268,18.483z M21.034,8.564c0.069-0.258,0.234-0.474,0.465-0.607   c0.153-0.088,0.326-0.135,0.5-0.135c0.356,0,0.688,0.192,0.866,0.5l5,8.66c0.134,0.231,0.169,0.5,0.1,0.759   C27.897,18,27.731,18.216,27.5,18.35c-0.463,0.269-1.1,0.093-1.365-0.366l-5-8.66C21,9.092,20.965,8.823,21.034,8.564z"/><path  d="M7.823,23.732l8.66,4.999C16.787,28.908,17.132,29,17.482,29c0.713,0,1.377-0.383,1.733-1   c0.267-0.462,0.338-1.001,0.2-1.518c-0.138-0.516-0.469-0.947-0.932-1.214l-8.66-5C8.899,19.735,7.622,20.081,7.091,21   c-0.267,0.462-0.338,1.001-0.2,1.518C7.03,23.034,7.361,23.465,7.823,23.732z M7.958,21.5c0.178-0.309,0.51-0.5,0.867-0.5   c0.174,0,0.347,0.046,0.499,0.134l8.66,5c0.231,0.133,0.397,0.349,0.466,0.607c0.069,0.258,0.034,0.527-0.1,0.759   c-0.264,0.459-0.901,0.635-1.366,0.366l-8.66-5c-0.231-0.133-0.397-0.349-0.466-0.607C7.788,22.001,7.824,21.732,7.958,21.5z"/><path  d="M16,40c0-1.103-0.897-2-2-2L4,38c-1.103,0-2,0.897-2,2s0.897,2,2,2L14,42C15.103,42,16,41.103,16,40z M3,40   c0-0.551,0.449-1,1-1l10,0c0.551,0,1,0.449,1,1s-0.449,1-1,1L4,41.001C3.449,41.001,3,40.552,3,40z"/><path  d="M16.483,51.269l-8.66,5c-0.462,0.267-0.793,0.698-0.932,1.214c-0.139,0.516-0.067,1.055,0.2,1.518   c0.356,0.617,1.02,1,1.733,1c0.35,0,0.695-0.093,0.999-0.269l8.66-5c0.462-0.267,0.793-0.698,0.932-1.214   c0.139-0.516,0.067-1.055-0.2-1.518C18.685,51.081,17.408,50.734,16.483,51.269z M18.449,53.259   c-0.069,0.258-0.234,0.474-0.466,0.607l-8.66,5c-0.461,0.268-1.101,0.093-1.365-0.366c-0.134-0.231-0.169-0.501-0.1-0.759   c0.069-0.258,0.234-0.474,0.466-0.607l8.66-5C17.136,52.046,17.308,52,17.482,52c0.357,0,0.689,0.191,0.867,0.5   C18.483,52.731,18.519,53.001,18.449,53.259z"/><path  d="M28,60.785c-0.923-0.535-2.202-0.188-2.732,0.731l-5,8.66c-0.267,0.463-0.338,1.002-0.2,1.518   c0.138,0.516,0.469,0.947,0.931,1.214c0.304,0.176,0.649,0.269,0.999,0.269c0.714,0,1.378-0.384,1.733-1l5-8.66   c0.267-0.463,0.338-1.002,0.2-1.518C28.793,61.483,28.462,61.052,28,60.785z M27.866,63.017l-5,8.66   c-0.264,0.459-0.903,0.635-1.366,0.366c-0.231-0.134-0.397-0.35-0.466-0.607c-0.069-0.258-0.034-0.527,0.1-0.759l5-8.66   c0.178-0.309,0.51-0.5,0.867-0.5c0.174,0,0.347,0.047,0.499,0.134c0.231,0.134,0.397,0.35,0.466,0.607   C28.035,62.516,28,62.785,27.866,63.017z"/><path  d="M40,64c-1.103,0-2,0.897-2,2l0,10c0,1.103,0.897,2,2,2s2-0.897,2-2L42,66C42,64.897,41.103,64,40,64z M40,77   c-0.551,0-1-0.448-1-1l0-10c0-0.552,0.449-1,1-1s1,0.448,1,1l0.001,10C41.001,76.552,40.552,77,40,77z"/><path  d="M54.732,61.517c-0.531-0.92-1.813-1.265-2.732-0.731c-0.955,0.551-1.283,1.775-0.731,2.731l4.999,8.66   c0.355,0.616,1.02,1,1.733,1c0.351,0,0.696-0.093,0.999-0.269c0.955-0.551,1.283-1.775,0.731-2.731L54.732,61.517z M58.5,72.043   c-0.464,0.268-1.102,0.093-1.366-0.366l-5-8.66c-0.275-0.478-0.111-1.091,0.367-1.366c0.151-0.088,0.324-0.135,0.498-0.135   c0.356,0,0.688,0.192,0.867,0.501l5,8.66C59.142,71.154,58.978,71.768,58.5,72.043z"/><path  d="M72.177,56.269l-8.659-5c-0.922-0.534-2.203-0.189-2.732,0.731c-0.552,0.956-0.224,2.181,0.731,2.731l8.66,5   C70.479,59.907,70.825,60,71.176,60c0.714,0,1.378-0.384,1.732-1C73.46,58.044,73.132,56.819,72.177,56.269z M72.042,58.5   c-0.264,0.46-0.901,0.635-1.365,0.366l-8.66-5c-0.478-0.275-0.642-0.889-0.365-1.367c0.177-0.309,0.509-0.5,0.866-0.5   c0.174,0,0.347,0.047,0.499,0.135l8.66,5C72.154,57.409,72.318,58.022,72.042,58.5z"/><path  d="M76,38l-10,0c-1.103,0-2,0.897-2,2c0,1.103,0.897,2,2,2l10,0.001c1.103,0,2-0.897,2-2S77.103,38,76,38z M76,41.001L66,41   c-0.552,0-1-0.449-1-1s0.448-1,1-1l10,0c0.552,0,1,0.449,1,1C77,40.552,76.552,41.001,76,41.001z"/><path  d="M62.518,29c0.35,0,0.695-0.093,0.999-0.269l8.66-5c0.463-0.267,0.794-0.698,0.932-1.214   c0.139-0.516,0.067-1.055-0.199-1.517c-0.531-0.92-1.809-1.267-2.732-0.732l-8.66,5c-0.463,0.267-0.794,0.698-0.932,1.214   c-0.139,0.516-0.067,1.055,0.199,1.517C61.141,28.617,61.805,29,62.518,29z M61.551,26.741c0.069-0.258,0.234-0.474,0.466-0.607   l8.661-5C70.829,21.046,71.001,21,71.176,21c0.356,0,0.688,0.191,0.867,0.5c0.133,0.231,0.169,0.501,0.1,0.759   s-0.234,0.474-0.466,0.607l-8.66,5c-0.464,0.27-1.1,0.093-1.366-0.366C61.518,27.269,61.481,26.999,61.551,26.741z"/><path  d="M52,19.215c0.304,0.176,0.649,0.269,0.999,0.269c0.713,0,1.377-0.383,1.732-1l5-8.66c0.268-0.462,0.339-1.001,0.2-1.518   C59.794,7.79,59.463,7.359,59,7.092c-0.924-0.535-2.203-0.187-2.731,0.731l-5,8.66c-0.268,0.462-0.339,1.001-0.2,1.518   C51.206,18.517,51.537,18.948,52,19.215z M52.134,16.983l5.001-8.661c0.177-0.308,0.509-0.5,0.866-0.5   c0.175,0,0.347,0.046,0.499,0.135c0.231,0.133,0.396,0.349,0.466,0.607s0.033,0.527-0.1,0.759l-5.001,8.66   c-0.264,0.46-0.899,0.635-1.365,0.365c-0.231-0.133-0.396-0.349-0.466-0.607S52.001,17.215,52.134,16.983z"/></g><text x="0" y="95" fill="#000000" font-size="5px" font-weight="bold" font-family="'Helvetica Neue', Helvetica, Arial-Unicode, Arial, Sans-serif">Created by Yeong Rong Kim</text><text x="0" y="100" fill="#000000" font-size="5px" font-weight="bold" font-family="'Helvetica Neue', Helvetica, Arial-Unicode, Arial, Sans-serif">from the Noun Project</text></svg>