<svg xmlns="http://www.w3.org/2000/svg" xmlns:xlink="http://www.w3.org/1999/xlink" version="1.1" x="0px" y="0px" viewBox="0 0 100 125" enable-background="new 0 0 100 100" xml:space="preserve"><g><circle cx="50.521" cy="49.359" r="21.32"/><polygon points="57.849,74.011 60.514,87.336 69.176,83.339 61.847,72.012  "/><polygon points="41.538,25.663 39.169,12.382 30.109,15.368 37.251,26.929  "/><polygon points="87.12,38.987 83.122,30.326 71.796,37.655 73.794,41.652  "/><polygon points="12.165,60.333 15.152,69.392 26.712,62.25 25.447,57.964  "/><polygon points="12.157,39.998 25.348,42.824 26.761,38.584 15.455,31.046  "/><polygon points="74.618,57.311 72.482,61.237 83.549,68.954 87.843,60.436  "/><polygon points="31.046,84.545 39.998,87.843 42.824,74.652 38.584,73.239  "/><polygon points="68.954,16.451 60.436,12.157 57.311,25.382 61.237,27.518  "/></g><text x="0" y="115" fill="#000000" font-size="5px" font-weight="bold" font-family="'Helvetica Neue', Helvetica, Arial-Unicode, Arial, Sans-serif">Created by Carla Dias</text><text x="0" y="120" fill="#000000" font-size="5px" font-weight="bold" font-family="'Helvetica Neue', Helvetica, Arial-Unicode, Arial, Sans-serif">from the Noun Project</text></svg>