<?xml version="1.0" encoding="utf-8"?>
<!-- Generator: Adobe Illustrator 16.0.0, SVG Export Plug-In . SVG Version: 6.00 Build 0)  -->
<!DOCTYPE svg PUBLIC "-//W3C//DTD SVG 1.1//EN" "http://www.w3.org/Graphics/SVG/1.1/DTD/svg11.dtd">
<svg version="1.1" id="Layer_1" xmlns="http://www.w3.org/2000/svg" xmlns:xlink="http://www.w3.org/1999/xlink" x="0px" y="0px"
	 width="300px" height="150px" viewBox="0 0 300 150" enable-background="new 0 0 300 150" xml:space="preserve">
<g>
	<circle opacity="0.3" cx="100.068" cy="42.683" r="13.205"/>
	<circle opacity="0.3" cx="100.068" cy="42.692" r="11.585"/>
	<circle opacity="0.3" cx="100.153" cy="42.692" r="9.882"/>
	<g>
		<path d="M81.583,105.58c-3.528,2.101-7.224,3.276-11.004,3.276c-6.72,0-12.516-3.864-12.516-13.021V72.653h-6.3v-7.224h6.3V53.165
			h9.576v12.264h13.188v7.224H67.639v21.419c0,4.62,1.764,6.048,4.788,6.048c2.016,0,4.116-0.672,6.72-1.932L81.583,105.58z"/>
		<path d="M161.635,80.633v27.804h-9.66V83.32c0-6.72-4.032-10.835-10.752-10.835c-7.392,0.084-12.012,5.208-12.684,12.179v23.772
			h-9.66V63.749h9.66v8.568c3.192-6.216,8.904-8.904,16.464-8.904C155.418,63.413,161.635,69.965,161.635,80.633z"/>
		<path d="M172.975,125.152c-3.36,0-6.721-1.092-9.324-3.023l3.191-7.477c1.764,1.26,3.864,2.017,5.713,2.017
			c2.939,0,5.291-1.765,5.291-6.049V63.749h9.576v45.948C187.422,120.28,180.113,125.152,172.975,125.152z M188.598,50.981
			c0,3.36-2.436,5.88-5.964,5.88c-3.36,0-5.88-2.52-5.88-5.88c0-3.444,2.52-5.88,5.88-5.88
			C186.162,45.101,188.598,47.537,188.598,50.981z"/>
		<path d="M232.193,108.437v-5.46c-3.193,3.948-8.316,5.88-14.785,5.88c-9.659,0-15.707-5.964-15.707-13.86
			c0-8.147,6.132-13.355,16.884-13.439h13.524v-1.344c0-5.628-3.613-8.988-10.668-8.988c-4.285,0-8.736,1.512-13.188,4.536
			l-3.948-6.72c6.217-3.696,10.752-5.628,19.236-5.628c11.508,0,17.976,5.88,18.06,15.708l0.084,29.315H232.193z M232.109,92.729
			v-4.115h-12.097c-6.3,0-9.239,1.68-9.239,5.963c0,4.032,3.275,6.637,8.651,6.637C226.313,101.213,231.604,97.601,232.109,92.729z"
			/>
	</g>
	<circle cx="100.242" cy="42.715" r="7.778"/>
	<path stroke="#FFFFFF" stroke-width="2" stroke-miterlimit="10" d="M94,75"/>
	<g>
		<g>
			<path d="M97.059,108.464c0-0.009,0-0.018,0-0.026l0,0V108.464z"/>
			<g>
				<path fill="#184DA0" d="M98.059,108.464c0-0.009,0-0.018,0-0.026c0-1.29-2-1.29-2,0c0,0.009,0,0.018,0,0.026
					C96.059,109.754,98.059,109.754,98.059,108.464c0-0.009,0-0.018,0-0.026c0-1.29-2-1.29-2,0c0,0.009,0,0.018,0,0.026
					C96.059,109.754,98.059,109.754,98.059,108.464z"/>
			</g>
		</g>
		<g>
			<path d="M106.519,64H93.434c4.548,18,3.625,20,3.625,44h5.806l0.028,0.202C102.894,83.674,101.969,82,106.519,64z"/>
			<g>
				<path fill="#184DA0" d="M106.519,63.086c-4.362,0-8.723,0-13.085,0c-0.658,0-1.126,0.638-0.964,1.266
					c3.823,14.794,3.604,28.896,3.589,44.086c0,0.545,0.455,1,1,1c0.807,0,1.614,0,2.421,0c0.87,0,3.459,0.435,2.706-0.267
					c0.628,0.585,1.708,0.188,1.707-0.707c-0.015-15.198-0.235-29.31,3.59-44.112c0.323-1.25-1.606-1.779-1.929-0.531
					c-3.872,14.984-3.676,29.247-3.661,44.644c0.569-0.235,1.138-0.472,1.707-0.707c-1.206-1.123-5.006-0.319-6.542-0.319
					c0.333,0.333,0.667,0.667,1,1c0.015-15.388,0.209-29.642-3.661-44.617c-0.321,0.422-0.643,0.844-0.964,1.266
					c4.362,0,8.723,0,13.085,0C107.809,65.086,107.809,63.086,106.519,63.086z"/>
			</g>
		</g>
	</g>
</g>
</svg>
